<svg width="960" height="1280" viewBox="0 0 960 1280" fill="none" xmlns="http://www.w3.org/2000/svg">
  <rect width="960" height="1280" rx="56" fill="#0B0A10"/>
  <rect width="960" height="1280" rx="56" fill="url(#bg)"/>
  <ellipse cx="479" cy="256" rx="350" ry="210" fill="url(#glowTop)" opacity="0.55"/>
  <ellipse cx="740" cy="548" rx="180" ry="220" fill="#C9A86A" opacity="0.11"/>
  <ellipse cx="198" cy="700" rx="180" ry="240" fill="#8C233B" opacity="0.2"/>

  <g opacity="0.95">
    <path d="M307 416C307 358.562 353.562 312 411 312C468.438 312 515 358.562 515 416V482C515 542.751 465.751 592 405 592H417C477.751 592 527 641.249 527 702V1002C527 1049.5 488.495 1088 441 1088H381C333.505 1088 295 1049.5 295 1002V702C295 641.249 344.249 592 405 592H417C356.249 592 307 542.751 307 482V416Z" fill="url(#figureCenter)"/>
    <path d="M122 526C122 476.294 162.294 436 212 436C261.706 436 302 476.294 302 526V574C302 626.467 259.467 669 207 669H214C266.467 669 309 711.533 309 764V1010C309 1051.42 275.421 1085 234 1085H190C148.579 1085 115 1051.42 115 1010V764C115 711.533 157.533 669 210 669H217C164.533 669 122 626.467 122 574V526Z" fill="url(#figureLeft)"/>
    <path d="M658 526C658 476.294 698.294 436 748 436C797.706 436 838 476.294 838 526V574C838 626.467 795.467 669 743 669H750C802.467 669 845 711.533 845 764V1010C845 1051.42 811.421 1085 770 1085H726C684.579 1085 651 1051.42 651 1010V764C651 711.533 693.533 669 746 669H753C700.533 669 658 626.467 658 574V526Z" fill="url(#figureRight)"/>
  </g>

  <rect x="76" y="880" width="808" height="270" rx="40" fill="url(#panel)" stroke="rgba(255,255,255,0.14)"/>
  <text x="122" y="944" fill="#F2E7D2" font-family="Georgia, 'Times New Roman', serif" font-size="28" letter-spacing="8">MANSION DESEO</text>
  <text x="122" y="1008" fill="#FFFFFF" font-family="Georgia, 'Times New Roman', serif" font-size="68" font-weight="700">Discreción,</text>
  <text x="122" y="1088" fill="#FFFFFF" font-family="Georgia, 'Times New Roman', serif" font-size="68" font-weight="700">química y acceso</text>

  <defs>
    <linearGradient id="bg" x1="480" y1="0" x2="480" y2="1280" gradientUnits="userSpaceOnUse">
      <stop stop-color="#15121B"/>
      <stop offset="0.45" stop-color="#100E15"/>
      <stop offset="1" stop-color="#09080D"/>
    </linearGradient>
    <radialGradient id="glowTop" cx="0" cy="0" r="1" gradientUnits="userSpaceOnUse" gradientTransform="translate(479 256) rotate(90) scale(210 350)">
      <stop stop-color="#D4A95D"/>
      <stop offset="1" stop-color="#D4A95D" stop-opacity="0"/>
    </radialGradient>
    <linearGradient id="figureCenter" x1="411" y1="312" x2="411" y2="1088" gradientUnits="userSpaceOnUse">
      <stop stop-color="#A48A5B"/>
      <stop offset="0.42" stop-color="#5E3340"/>
      <stop offset="1" stop-color="#160F16"/>
    </linearGradient>
    <linearGradient id="figureLeft" x1="212" y1="436" x2="212" y2="1085" gradientUnits="userSpaceOnUse">
      <stop stop-color="#8E6B58"/>
      <stop offset="0.45" stop-color="#472530"/>
      <stop offset="1" stop-color="#140E14"/>
    </linearGradient>
    <linearGradient id="figureRight" x1="748" y1="436" x2="748" y2="1085" gradientUnits="userSpaceOnUse">
      <stop stop-color="#8E6B58"/>
      <stop offset="0.45" stop-color="#472530"/>
      <stop offset="1" stop-color="#140E14"/>
    </linearGradient>
    <linearGradient id="panel" x1="480" y1="880" x2="480" y2="1150" gradientUnits="userSpaceOnUse">
      <stop stop-color="#18141C" stop-opacity="0.92"/>
      <stop offset="1" stop-color="#0E0C12" stop-opacity="0.98"/>
    </linearGradient>
  </defs>
</svg>
